<?xml version="1.0" encoding="utf-8"?>
<!-- Generator: Adobe Illustrator 16.0.0, SVG Export Plug-In . SVG Version: 6.00 Build 0)  -->
<!DOCTYPE svg PUBLIC "-//W3C//DTD SVG 1.1//EN" "http://www.w3.org/Graphics/SVG/1.1/DTD/svg11.dtd">
<svg version="1.1" id="Calque_1" xmlns="http://www.w3.org/2000/svg" xmlns:xlink="http://www.w3.org/1999/xlink" x="0px" y="0px"
	 width="150px" height="67.557px" viewBox="0 0 150 67.557" enable-background="new 0 0 150 67.557" xml:space="preserve">
<g>
	<defs>
		<rect id="SVGID_1_" x="2.584" y="-45.08" width="146.021" height="146.021"/>
	</defs>
	<clipPath id="SVGID_2_">
		<use xlink:href="#SVGID_1_"  overflow="visible"/>
	</clipPath>
	<path clip-path="url(#SVGID_2_)" fill="#42C0ED" d="M123.226,2.901c-5.646,0-10.463,1.995-14.449,5.982
		c-4.008,4.006-6.011,8.832-6.011,14.479c0,5.646,2.003,10.463,6.011,14.45c3.986,4.007,8.803,6.009,14.449,6.009
		c5.646,0,10.471-2.002,14.478-6.009c3.988-3.987,5.98-8.805,5.98-14.45c0-4.925-1.517-9.227-4.55-12.904
		c0.032,0.091,0.061,0.163,0.075,0.22c1.933,7.061,1.583,9.869,1.388,12.988c-0.288,4.613-2.241,8.268-5.521,11.547
		c-3.28,3.28-7.23,4.919-11.851,4.919c-4.622,0-8.571-1.639-11.852-4.919c-3.279-3.279-4.919-7.23-4.919-11.851
		c0-4.621,1.64-8.572,4.919-11.851c3.28-3.28,7.229-4.919,11.852-4.919C123.226,6.593,123.237,2.901,123.226,2.901"/>
	<polygon clip-path="url(#SVGID_2_)" points="29.959,3.266 29.959,6.955 19.45,6.955 19.45,43.402 15.76,43.402 15.76,6.955 
		5.223,6.955 5.223,3.266 	"/>
	<polygon clip-path="url(#SVGID_2_)" points="42.468,29.29 42.485,33.369 26.553,33.369 20.208,43.402 15.848,43.402 42.536,3.266 
		42.478,9.372 29.452,29.29 	"/>
	<polygon clip-path="url(#SVGID_2_)" points="103.772,3.266 103.772,43.374 100.11,43.374 100.11,12.182 86.611,43.402 
		82.585,43.402 69.114,12.182 69.011,31.108 65.526,31.108 65.424,3.266 69.28,3.266 84.597,38.764 99.942,3.266 	"/>
	<path clip-path="url(#SVGID_2_)" d="M139.101,10.374c-0.007,0.007-0.013,0.015-0.02,0.023c0.017,0.02,0.035,0.04,0.053,0.061
		C139.125,10.432,139.113,10.403,139.101,10.374"/>
	<path clip-path="url(#SVGID_2_)" fill="#42C0ED" d="M43.613,43.402V3.266h3.693c-0.017,4.767-0.017,15.96,0,18.493
		c4.021,0.034,11.926-0.408,15.454,0.709c1.9,0.895,3.418,2.218,4.556,3.968c1.155,1.81,1.732,3.783,1.732,5.926
		c0,3.057-1.071,5.655-3.213,7.798c-2.162,2.162-4.751,3.243-7.77,3.243H43.613z M47.303,39.713h10.761
		c2.013,0,3.735-0.717,5.17-2.152c1.416-1.435,2.125-3.167,2.125-5.199c0-1.993-0.709-3.707-2.125-5.143
		c-1.435-1.416-3.158-2.124-5.17-2.124H47.303V39.713z"/>
</g>
<g>
	<path d="M12.351,49.117v5.699h-0.917v-3.62l-1.68,3.62H8.72l-1.65-3.597v3.597H6.153v-5.699h0.958l2.128,4.651l2.153-4.651H12.351z
		"/>
	<path d="M13.955,54.02c-0.603-0.567-0.904-1.253-0.904-2.055s0.301-1.486,0.904-2.055c0.602-0.568,1.328-0.853,2.178-0.853
		c0.85,0,1.576,0.284,2.178,0.853c0.602,0.568,0.903,1.253,0.903,2.055s-0.301,1.487-0.903,2.055
		c-0.603,0.568-1.329,0.853-2.178,0.853C15.283,54.872,14.557,54.588,13.955,54.02z M14.604,50.523
		c-0.422,0.398-0.633,0.879-0.633,1.441s0.211,1.044,0.633,1.441c0.422,0.398,0.932,0.598,1.528,0.598s1.106-0.199,1.528-0.598
		c0.422-0.397,0.633-0.879,0.633-1.441s-0.211-1.043-0.633-1.441c-0.422-0.398-0.931-0.598-1.528-0.598S15.027,50.125,14.604,50.523
		z"/>
	<path d="M19.936,54.816v-5.699h1.896c0.479,0,0.887,0.159,1.224,0.479c0.338,0.321,0.507,0.706,0.507,1.154
		c0,0.401-0.137,0.753-0.41,1.056c0.234,0.151,0.417,0.345,0.549,0.581c0.141,0.242,0.211,0.501,0.211,0.777
		c0,0.456-0.172,0.846-0.515,1.166c-0.341,0.324-0.751,0.486-1.233,0.486H19.936z M20.852,51.519h0.979
		c0.225,0,0.417-0.075,0.574-0.227c0.161-0.148,0.241-0.329,0.241-0.542c0-0.212-0.08-0.393-0.241-0.541
		c-0.158-0.151-0.349-0.228-0.574-0.228h-0.979V51.519z M20.852,53.952h1.313c0.228,0,0.424-0.077,0.587-0.23
		c0.161-0.154,0.241-0.34,0.241-0.558c0-0.216-0.08-0.398-0.241-0.55c-0.163-0.154-0.359-0.231-0.587-0.231h-1.313V53.952z"/>
	<path d="M25.568,54.816h-0.916v-5.691h0.916V54.816z"/>
	<path d="M27.484,49.117v4.835h2.166v0.864h-3.082v-5.699H27.484z"/>
	<path d="M33.466,49.117v0.864h-2.166v1.545h1.671v0.864h-1.671v1.562h2.166v0.864h-3.082v-5.699H33.466z"/>
	<path d="M37.273,54.816h-0.916v-5.699h2.229c0.481,0,0.892,0.162,1.233,0.486c0.343,0.321,0.515,0.71,0.515,1.167
		c0,0.454-0.172,0.842-0.515,1.162c-0.341,0.321-0.751,0.482-1.233,0.482h-1.313V54.816z M37.273,51.551h1.313
		c0.228,0,0.424-0.077,0.587-0.231c0.161-0.151,0.241-0.334,0.241-0.549c0-0.218-0.08-0.404-0.241-0.558
		c-0.163-0.154-0.359-0.231-0.587-0.231h-1.313V51.551z"/>
	<path d="M45.333,54.816h-1.034l-1.321-2.401h-1.035v2.401h-0.916v-5.699h2.229c0.481,0,0.892,0.162,1.233,0.486
		c0.343,0.321,0.515,0.71,0.515,1.167c0,0.334-0.1,0.64-0.299,0.916c-0.194,0.271-0.449,0.47-0.764,0.597L45.333,54.816z
		 M43.255,51.551c0.228,0,0.424-0.077,0.587-0.231c0.16-0.151,0.241-0.334,0.241-0.549c0-0.218-0.081-0.404-0.241-0.558
		c-0.163-0.154-0.359-0.231-0.587-0.231h-1.313v1.569H43.255z"/>
	<path d="M46.435,54.02c-0.603-0.567-0.904-1.253-0.904-2.055s0.301-1.486,0.904-2.055c0.602-0.568,1.328-0.853,2.178-0.853
		c0.85,0,1.576,0.284,2.178,0.853c0.602,0.568,0.903,1.253,0.903,2.055s-0.301,1.487-0.903,2.055
		c-0.603,0.568-1.329,0.853-2.178,0.853C47.763,54.872,47.037,54.588,46.435,54.02z M47.084,50.523
		c-0.422,0.398-0.633,0.879-0.633,1.441s0.211,1.044,0.633,1.441c0.422,0.398,0.932,0.598,1.528,0.598s1.106-0.199,1.528-0.598
		c0.422-0.397,0.633-0.879,0.633-1.441s-0.211-1.043-0.633-1.441c-0.422-0.398-0.931-0.598-1.528-0.598S47.507,50.125,47.084,50.523
		z"/>
	<path d="M53.049,54.02c-0.602-0.567-0.903-1.253-0.903-2.055s0.301-1.486,0.903-2.055c0.603-0.568,1.329-0.853,2.178-0.853
		c0.419,0,0.819,0.076,1.199,0.228l-0.355,0.8c-0.27-0.108-0.551-0.163-0.844-0.163c-0.597,0-1.106,0.2-1.528,0.602
		c-0.422,0.398-0.633,0.879-0.633,1.441s0.211,1.044,0.633,1.441c0.422,0.398,0.931,0.598,1.528,0.598
		c0.194,0,0.383-0.022,0.566-0.067v-1.554h-0.979v-0.868h1.9v3.015l-0.279,0.112c-0.386,0.153-0.788,0.23-1.208,0.23
		C54.378,54.872,53.652,54.588,53.049,54.02z"/>
	<path d="M61.682,54.816h-1.034l-1.321-2.401h-1.035v2.401h-0.916v-5.699h2.229c0.481,0,0.892,0.162,1.233,0.486
		c0.343,0.321,0.515,0.71,0.515,1.167c0,0.334-0.1,0.64-0.299,0.916c-0.194,0.271-0.449,0.47-0.764,0.597L61.682,54.816z
		 M59.605,51.551c0.228,0,0.424-0.077,0.587-0.231c0.16-0.151,0.241-0.334,0.241-0.549c0-0.218-0.081-0.404-0.241-0.558
		c-0.163-0.154-0.359-0.231-0.587-0.231h-1.313v1.569H59.605z"/>
	<path d="M66.833,49.117v5.699h-0.92v-1.33H63.86l-0.891,1.33h-1.085l3.82-5.699H66.833z M64.439,52.622h1.473v-2.194L64.439,52.622
		z"/>
	<path d="M74.115,49.117v5.699h-0.917v-3.62l-1.68,3.62h-1.035l-1.65-3.597v3.597h-0.916v-5.699h0.958l2.128,4.651l2.153-4.651
		H74.115z"/>
	<path d="M81.388,49.117v5.699h-0.916v-3.62l-1.681,3.62h-1.034l-1.65-3.597v3.597h-0.916v-5.699h0.958l2.128,4.651l2.152-4.651
		H81.388z"/>
	<path d="M87.041,49.117v5.699H86.12v-1.33h-2.051l-0.892,1.33h-1.084l3.82-5.699H87.041z M84.647,52.622h1.473v-2.194
		L84.647,52.622z"/>
	<path d="M91.338,49.117v0.864h-1.279v4.835h-0.921v-4.835H87.86v-0.864H91.338z"/>
	<path d="M93.085,54.816h-0.916v-5.691h0.916V54.816z"/>
	<path d="M96.902,54.004c0.366,0,0.708-0.081,1.025-0.243v0.944c-0.332,0.111-0.674,0.167-1.025,0.167
		c-0.85,0-1.576-0.284-2.179-0.853c-0.602-0.567-0.903-1.253-0.903-2.055s0.302-1.486,0.903-2.055
		c0.603-0.568,1.329-0.853,2.179-0.853c0.352,0,0.693,0.055,1.025,0.163v0.948c-0.317-0.165-0.659-0.247-1.025-0.247
		c-0.597,0-1.106,0.2-1.528,0.602c-0.422,0.398-0.633,0.879-0.633,1.441s0.211,1.044,0.633,1.441
		C95.795,53.805,96.305,54.004,96.902,54.004z"/>
	<path d="M102.441,54.868c-0.4-0.016-0.769-0.117-1.106-0.303c-0.383-0.21-0.643-0.491-0.781-0.844l0.861-0.299
		c0.07,0.175,0.216,0.317,0.436,0.426c0.193,0.093,0.405,0.145,0.633,0.155c0.352,0.014,0.643-0.067,0.874-0.243
		c0.194-0.148,0.297-0.318,0.308-0.51c0.018-0.363-0.387-0.654-1.211-0.872c-1.292-0.343-1.918-0.923-1.879-1.74
		c0.025-0.573,0.286-1.002,0.781-1.286c0.377-0.218,0.83-0.314,1.359-0.291c0.642,0.026,1.156,0.238,1.545,0.634l-0.671,0.589
		c-0.22-0.223-0.525-0.343-0.917-0.358c-0.275-0.011-0.511,0.022-0.704,0.1c-0.305,0.122-0.464,0.34-0.478,0.653
		c-0.017,0.358,0.387,0.646,1.212,0.864c0.743,0.196,1.269,0.485,1.578,0.868c0.214,0.266,0.314,0.559,0.3,0.88
		c-0.022,0.451-0.239,0.834-0.649,1.147c-0.383,0.289-0.842,0.434-1.377,0.434C102.515,54.872,102.477,54.871,102.441,54.868z"/>
	<path d="M105.893,54.02c-0.602-0.567-0.903-1.253-0.903-2.055s0.302-1.486,0.903-2.055c0.603-0.568,1.328-0.853,2.179-0.853
		c0.85,0,1.576,0.284,2.178,0.853c0.603,0.568,0.903,1.253,0.903,2.055s-0.301,1.487-0.903,2.055
		c-0.602,0.568-1.328,0.853-2.178,0.853C107.221,54.872,106.496,54.588,105.893,54.02z M106.543,50.523
		c-0.422,0.398-0.633,0.879-0.633,1.441s0.211,1.044,0.633,1.441c0.422,0.398,0.932,0.598,1.528,0.598s1.105-0.199,1.528-0.598
		c0.422-0.397,0.633-0.879,0.633-1.441s-0.211-1.043-0.633-1.441c-0.423-0.398-0.932-0.598-1.528-0.598
		S106.965,50.125,106.543,50.523z"/>
	<path d="M112.779,49.117v4.835h2.165v0.864h-3.081v-5.699H112.779z"/>
	<path d="M116.354,54.274c-0.419-0.396-0.629-0.873-0.629-1.434v-3.728h0.921v3.728c0,0.321,0.119,0.595,0.358,0.82
		c0.242,0.229,0.532,0.343,0.87,0.343c0.34,0,0.63-0.114,0.869-0.343c0.242-0.226,0.363-0.499,0.363-0.82v-3.728h0.92v3.728
		c0,0.561-0.211,1.038-0.633,1.434c-0.42,0.396-0.926,0.594-1.52,0.594C117.283,54.868,116.777,54.671,116.354,54.274z"/>
	<path d="M124.329,49.117v0.864h-1.279v4.835h-0.921v-4.835h-1.278v-0.864H124.329z"/>
	<path d="M126.076,54.816h-0.916v-5.691h0.916V54.816z"/>
	<path d="M127.659,54.02c-0.602-0.567-0.903-1.253-0.903-2.055s0.302-1.486,0.903-2.055c0.603-0.568,1.328-0.853,2.179-0.853
		c0.85,0,1.576,0.284,2.178,0.853c0.603,0.568,0.903,1.253,0.903,2.055s-0.301,1.487-0.903,2.055
		c-0.602,0.568-1.328,0.853-2.178,0.853C128.987,54.872,128.261,54.588,127.659,54.02z M128.309,50.523
		c-0.422,0.398-0.633,0.879-0.633,1.441s0.211,1.044,0.633,1.441c0.422,0.398,0.932,0.598,1.528,0.598s1.105-0.199,1.528-0.598
		c0.422-0.397,0.633-0.879,0.633-1.441s-0.211-1.043-0.633-1.441c-0.423-0.398-0.932-0.598-1.528-0.598
		S128.731,50.125,128.309,50.523z"/>
	<path d="M138.027,49.117v5.699h-0.958l-2.584-4.074v4.074h-0.916v-5.699h0.958l2.58,4.074v-4.074H138.027z"/>
	<path d="M140.59,54.868c-0.4-0.016-0.769-0.117-1.106-0.303c-0.383-0.21-0.643-0.491-0.781-0.844l0.861-0.299
		c0.07,0.175,0.216,0.317,0.436,0.426c0.193,0.093,0.405,0.145,0.633,0.155c0.352,0.014,0.643-0.067,0.874-0.243
		c0.194-0.148,0.297-0.318,0.308-0.51c0.018-0.363-0.387-0.654-1.211-0.872c-1.292-0.343-1.918-0.923-1.879-1.74
		c0.025-0.573,0.286-1.002,0.781-1.286c0.377-0.218,0.83-0.314,1.359-0.291c0.642,0.026,1.156,0.238,1.545,0.634l-0.671,0.589
		c-0.22-0.223-0.525-0.343-0.917-0.358c-0.275-0.011-0.511,0.022-0.704,0.1c-0.305,0.122-0.464,0.34-0.478,0.653
		c-0.017,0.358,0.387,0.646,1.212,0.864c0.743,0.196,1.269,0.485,1.578,0.868c0.214,0.266,0.314,0.559,0.3,0.88
		c-0.022,0.451-0.239,0.834-0.649,1.147c-0.383,0.289-0.842,0.434-1.377,0.434C140.665,54.872,140.626,54.871,140.59,54.868z"/>
	<path d="M30.982,64.604h-1.034l-1.321-2.401h-1.035v2.401h-0.916v-5.699h2.229c0.481,0,0.892,0.162,1.233,0.486
		c0.343,0.321,0.515,0.71,0.515,1.167c0,0.334-0.1,0.64-0.299,0.916c-0.194,0.271-0.449,0.47-0.764,0.597L30.982,64.604z
		 M28.905,61.338c0.228,0,0.424-0.077,0.587-0.231c0.16-0.151,0.241-0.334,0.241-0.549c0-0.218-0.081-0.404-0.241-0.558
		c-0.163-0.154-0.359-0.231-0.587-0.231h-1.313v1.569H28.905z"/>
	<path d="M34.583,58.904v0.864h-2.166v1.545h1.671v0.864h-1.671v1.562h2.166v0.864h-3.082v-5.699H34.583z"/>
	<path d="M39.767,58.904v5.699h-0.92v-1.33h-2.052l-0.891,1.33h-1.085l3.821-5.699H39.767z M37.373,62.409h1.473v-2.194
		L37.373,62.409z"/>
	<path d="M41.713,58.904v4.835h2.166v0.864h-3.082v-5.699H41.713z"/>
	<path d="M47.88,58.904v0.864h-1.279v4.835h-0.92v-4.835h-1.279v-0.864H47.88z"/>
	<path d="M49.628,64.604h-0.916v-5.691h0.916V64.604z"/>
	<path d="M56.881,58.904v5.699h-0.917v-3.62l-1.68,3.62H53.25l-1.65-3.597v3.597h-0.916v-5.699h0.958l2.128,4.651l2.153-4.651
		H56.881z"/>
	<path d="M60.984,58.904v0.864h-2.166v1.545h1.671v0.864h-1.671v1.562h2.166v0.864h-3.082v-5.699H60.984z"/>
	<path d="M63.846,64.604v-5.699h1.587c0.833,0,1.545,0.279,2.136,0.837c0.588,0.558,0.882,1.229,0.882,2.015
		c0,0.783-0.294,1.454-0.882,2.012c-0.591,0.558-1.303,0.836-2.136,0.836H63.846z M64.757,63.743h0.676
		c0.58,0,1.076-0.195,1.49-0.585c0.411-0.388,0.617-0.855,0.617-1.402c0-0.55-0.206-1.018-0.617-1.405
		c-0.414-0.391-0.91-0.586-1.49-0.586h-0.676V63.743z"/>
	<path d="M73.847,58.904v5.699h-0.92v-1.33h-2.052l-0.891,1.33h-1.085l3.82-5.699H73.847z M71.453,62.409h1.473v-2.194
		L71.453,62.409z"/>
	<path d="M78.144,58.904v0.864h-1.279v4.835h-0.92v-4.835h-1.279v-0.864H78.144z"/>
	<path d="M83.598,58.904v5.699h-0.921v-1.33h-2.051l-0.892,1.33h-1.084l3.82-5.699H83.598z M81.205,62.409h1.473v-2.194
		L81.205,62.409z"/>
	<path d="M91.404,58.904v5.699h-0.921v-1.33h-2.051l-0.892,1.33h-1.084l3.82-5.699H91.404z M89.01,62.409h1.473v-2.194L89.01,62.409
		z"/>
	<path d="M96.833,58.904v5.699h-0.958l-2.584-4.074v4.074h-0.916v-5.699h0.958l2.58,4.074v-4.074H96.833z"/>
	<path d="M102.417,58.904v5.699h-0.921v-1.33h-2.051l-0.892,1.33H97.47l3.82-5.699H102.417z M100.024,62.409h1.473v-2.194
		L100.024,62.409z"/>
	<path d="M104.364,58.904v4.835h2.165v0.864h-3.081v-5.699H104.364z"/>
	<path d="M111.452,58.904l-1.883,3.019v2.681h-0.92v-2.681l-1.883-3.019h1.063l1.279,2.047l1.279-2.047H111.452z"/>
	<path d="M113.562,64.655c-0.4-0.016-0.769-0.117-1.106-0.303c-0.383-0.21-0.643-0.491-0.781-0.844l0.861-0.299
		c0.07,0.175,0.216,0.317,0.436,0.426c0.193,0.093,0.405,0.145,0.633,0.155c0.352,0.014,0.643-0.067,0.874-0.243
		c0.194-0.148,0.297-0.318,0.308-0.51c0.018-0.363-0.387-0.654-1.211-0.872c-1.292-0.343-1.918-0.923-1.879-1.74
		c0.025-0.573,0.286-1.002,0.781-1.286c0.377-0.218,0.83-0.314,1.359-0.291c0.642,0.026,1.156,0.238,1.545,0.634l-0.671,0.589
		c-0.22-0.223-0.525-0.343-0.917-0.358c-0.275-0.011-0.511,0.022-0.704,0.1c-0.305,0.122-0.464,0.34-0.478,0.653
		c-0.017,0.358,0.387,0.646,1.212,0.864c0.743,0.196,1.269,0.485,1.578,0.868c0.214,0.266,0.314,0.559,0.3,0.88
		c-0.022,0.451-0.239,0.834-0.649,1.147c-0.383,0.289-0.842,0.434-1.377,0.434C113.636,64.659,113.598,64.658,113.562,64.655z"/>
	<path d="M117.357,64.604h-0.916v-5.691h0.916V64.604z"/>
	<path d="M119.966,64.655c-0.4-0.016-0.769-0.117-1.106-0.303c-0.383-0.21-0.643-0.491-0.781-0.844l0.861-0.299
		c0.07,0.175,0.216,0.317,0.436,0.426c0.193,0.093,0.405,0.145,0.633,0.155c0.352,0.014,0.643-0.067,0.874-0.243
		c0.194-0.148,0.297-0.318,0.308-0.51c0.018-0.363-0.387-0.654-1.211-0.872c-1.292-0.343-1.918-0.923-1.879-1.74
		c0.025-0.573,0.286-1.002,0.781-1.286c0.377-0.218,0.83-0.314,1.359-0.291c0.642,0.026,1.156,0.238,1.545,0.634l-0.671,0.589
		c-0.22-0.223-0.525-0.343-0.917-0.358c-0.275-0.011-0.511,0.022-0.704,0.1c-0.305,0.122-0.464,0.34-0.478,0.653
		c-0.017,0.358,0.387,0.646,1.212,0.864c0.743,0.196,1.269,0.485,1.578,0.868c0.214,0.266,0.314,0.559,0.3,0.88
		c-0.022,0.451-0.239,0.834-0.649,1.147c-0.383,0.289-0.842,0.434-1.377,0.434C120.041,64.659,120.002,64.658,119.966,64.655z"/>
</g>
</svg>
