<?xml version="1.0" encoding="utf-8"?>
<!-- Generator: Adobe Illustrator 16.2.1, SVG Export Plug-In . SVG Version: 6.00 Build 0)  -->
<!DOCTYPE svg PUBLIC "-//W3C//DTD SVG 1.1//EN" "http://www.w3.org/Graphics/SVG/1.1/DTD/svg11.dtd">
<svg version="1.1" id="Calque_1" xmlns="http://www.w3.org/2000/svg" xmlns:xlink="http://www.w3.org/1999/xlink" x="0px" y="0px"
	 width="170px" height="100px" viewBox="0 0 170 100" enable-background="new 0 0 170 100" xml:space="preserve">
<path fill="#0095A9" d="M93.911,12.014c0,4.483-3.635,8.109-8.116,8.109c-4.477,0-8.107-3.626-8.107-8.109
	c0-4.479,3.63-8.107,8.107-8.107C90.276,3.907,93.911,7.536,93.911,12.014"/>
<path fill="#0095A9" d="M103.995,48.131l-7.531-7.527v-0.035c-0.75-0.75-1.216-1.786-1.216-2.927c0-1.15,0.466-2.187,1.216-2.934
	v-0.03l7.531-7.529c2.191-2.196,2.191-5.748,0-7.938c-2.193-2.194-5.746-2.194-7.939,0l-7.594,7.594h-0.026
	c-0.746,0.713-1.752,1.156-2.863,1.156s-2.115-0.443-2.858-1.156h-0.047l-7.592-7.594c-2.193-2.191-5.748-2.191-7.939,0
	c-2.196,2.189-2.196,5.743,0,7.936l7.411,7.411v0.042c0.826,0.756,1.35,1.832,1.35,3.043c0,1.2-0.524,2.277-1.35,3.034v0.043
	l-7.411,7.411c-2.196,2.193-2.196,5.749,0,7.942c2.189,2.188,5.746,2.188,7.939,0l7.344-7.349h0.067
	c0.754-0.859,1.854-1.411,3.086-1.411c1.236,0,2.327,0.552,3.086,1.411h0.052l7.346,7.349c2.193,2.188,5.748,2.188,7.939,0
	C106.187,53.88,106.187,50.324,103.995,48.131"/>
<polygon fill="#0095A9" points="31.082,78.812 27.103,67.597 25.079,67.597 21.098,78.812 17.207,67.597 15.084,67.597 
	20.045,81.749 22.104,81.749 26.088,70.422 30.042,81.749 32.108,81.749 37.064,67.597 34.94,67.597 "/>
<path fill="#0095A9" d="M45.45,67.405c-2.649,0-4.291,0.464-5.469,1.544c-1.169,1.062-1.562,2.506-1.562,5.722
	c0,3.213,0.393,4.664,1.562,5.724c1.178,1.082,2.82,1.547,5.469,1.547c2.626,0,4.302-0.474,5.432-1.54
	c1.169-1.04,1.566-2.483,1.566-5.73c0-3.245-0.397-4.69-1.555-5.715C49.752,67.878,48.077,67.405,45.45,67.405 M49.476,79.069
	c-0.726,0.681-2.084,1.033-4.026,1.033c-1.935,0-3.298-0.353-4.057-1.029c-0.712-0.688-0.951-1.796-0.951-4.402
	c0-2.602,0.236-3.711,0.933-4.385c0.766-0.689,2.14-1.038,4.075-1.038c1.944,0,3.3,0.349,4.03,1.033
	c0.714,0.658,0.941,1.731,0.941,4.39C50.422,77.335,50.194,78.404,49.476,79.069"/>
<path fill="#0095A9" d="M66.828,68.574c-0.957-0.79-2.408-1.169-4.565-1.169c-2.156,0-3.816,0.518-4.94,1.539v-1.348h-1.991v14.152
	h2.022v-6.436c0-2.115,0-3.947,1.381-5.123c0.806-0.67,1.834-0.942,3.563-0.942c1.087,0,2.435,0.085,3.229,0.745
	c0.819,0.688,0.857,1.589,0.857,4.595v7.161h2.021v-7.531C68.405,71.163,68.408,69.891,66.828,68.574"/>
<path fill="#0095A9" d="M100.599,68.909c-1.461-1.25-3.117-1.504-5.319-1.504c-2.617,0-4.173,0.446-5.373,1.544
	c-1.168,1.066-1.562,2.506-1.562,5.722c0,3.213,0.395,4.664,1.562,5.724c1.188,1.082,2.82,1.547,5.471,1.547
	c2.7,0,4.325-0.446,5.434-1.482c0.514-0.459,1.125-1.305,1.105-2.713v-0.554h-1.955v0.554c0,0.513-0.248,1.12-0.561,1.383
	c-0.818,0.686-2.006,0.974-3.992,0.974c-1.928,0-3.345-0.359-4.099-1.033c-0.819-0.771-0.922-2.375-0.939-3.985h11.807v-1.011
	C102.177,71.479,101.661,69.788,100.599,68.909 M95.279,69.248c1.905,0,3.191,0.34,3.934,1.031c0.576,0.54,0.875,1.499,0.931,2.994
	h-9.763c0.061-1.481,0.361-2.459,0.927-2.989C92.081,69.592,93.387,69.248,95.279,69.248"/>
<path fill="#0095A9" d="M139.324,74.15c0.007,2.064,0.011,3.85-1.384,5.006c-0.794,0.669-1.832,0.946-3.557,0.946
	c-1.085,0-2.431-0.09-3.233-0.755c-0.814-0.687-0.857-1.579-0.857-4.592v-3.865h-2.021v4.233c0,2.975,0,4.326,1.585,5.647
	c0.955,0.799,2.405,1.17,4.562,1.17c2.156,0,3.816-0.519,4.94-1.54v1.348h1.988V67.597h-2.023V74.15z"/>
<polygon fill="#0095A9" points="147.362,79.651 147.362,67.624 145.258,67.624 145.258,81.209 145.273,81.749 155.074,81.749 
	155.074,79.651 "/>
<path fill="#0095A9" d="M83.486,68.753c-1.131-0.924-2.758-1.348-5.213-1.348c-2.651,0-4.287,0.464-5.474,1.544
	c-1.165,1.062-1.56,2.506-1.56,5.722c0,3.213,0.395,4.664,1.56,5.724c1.187,1.082,2.823,1.547,5.474,1.547
	c2.464,0,4.088-0.42,5.213-1.349v0.75h1.781V64.872h-1.781V68.753z M82.301,79.069c-0.736,0.681-2.088,1.033-4.028,1.033
	c-1.939,0-3.3-0.353-4.063-1.029c-0.708-0.688-0.946-1.796-0.946-4.402c0-2.602,0.239-3.711,0.938-4.385
	c0.763-0.689,2.133-1.038,4.072-1.038c1.939,0,3.298,0.349,4.028,1.033c0.719,0.658,0.944,1.731,0.944,4.39
	C83.245,77.335,83.017,78.404,82.301,79.069"/>
<path fill="#0095A9" d="M128.959,66.645c-0.859-0.806-2.546-1.165-4.586-1.165c-1.908,0-4.235,0.337-5.204,1.113
	c-1.062,0.857-1.562,1.946-1.562,3.187v1.169h-0.993v1.781h0.993v9.02h2.015v-8.391c0-0.205-0.007-0.415-0.011-0.629h4.857v-1.781
	h-4.894c0.022-1.082,0.194-2.267,0.913-2.898c0.839-0.729,2.673-0.729,3.954-0.729c1.219,0,2.56,0.12,3.188,0.714
	c0.226,0.203,0.38,0.46,0.48,0.772h2.03C130.019,67.937,129.642,67.258,128.959,66.645"/>
<path fill="#0095A9" d="M115.755,67.146c-0.399-0.04-3.608-0.062-4.088-0.062c-1.908,0-3.35,0.473-4.385,1.433v-1.241h-1.99v14.144
	h2.026v-6.652c-0.012-1.901-0.022-3.871,1.249-4.934c0.908-0.75,1.886-0.906,3.164-0.906c0.458,0,3.646,0.016,4.023,0.067V67.146z"
	/>
<g>
	<path fill="#0095A9" d="M70.628,96.513c-0.484,0.736-1.211,0.959-2.577,0.959h-2.645v-7.351h2.645c1.354,0,2.082,0.222,2.566,0.96
		c0.364,0.549,0.464,1.2,0.464,2.723C71.081,95.321,70.992,95.961,70.628,96.513z M69.735,91.532
		c-0.286-0.406-0.738-0.519-1.751-0.519h-1.609v5.565h1.609c1.013,0,1.466-0.1,1.751-0.509c0.254-0.361,0.364-0.937,0.364-2.267
		C70.099,92.469,69.99,91.896,69.735,91.532z"/>
	<path fill="#0095A9" d="M72.799,97.472v-7.351h0.979v7.351H72.799z"/>
	<path fill="#0095A9" d="M80.444,97.472v-0.66c-0.56,0.616-1.366,0.747-2.203,0.747c-2.722,0-2.742-1.631-2.742-3.755
		c0-2.238,0.009-3.758,3.006-3.758c1.676,0,2.745,0.473,2.745,2.06h-0.971c0-0.882-0.473-1.158-1.872-1.158
		c-1.951,0-1.928,0.87-1.928,2.856c0,2.004,0.022,2.852,1.883,2.852c1.928,0,1.95-0.96,1.961-2.535h-2.048v-0.856h2.975v4.208
		H80.444z"/>
	<path fill="#0095A9" d="M83.011,97.472v-7.351h0.979v7.351H83.011z"/>
	<path fill="#0095A9" d="M88.386,90.992v6.479h-0.979v-6.479h-2.292v-0.871h5.563v0.871H88.386z"/>
	<path fill="#0095A9" d="M95.946,97.472l-0.75-2.028h-3.074l-0.739,2.028h-1.024l2.844-7.351h0.981l2.832,7.351H95.946z
		 M93.664,91.3l-1.224,3.296h2.448L93.664,91.3z"/>
	<path fill="#0095A9" d="M98.07,97.472v-7.351h0.98v6.468h3.735v0.883H98.07z"/>
</g>
</svg>
