<?xml version="1.0" encoding="utf-8"?>
<!-- Generator: Adobe Illustrator 16.0.0, SVG Export Plug-In . SVG Version: 6.00 Build 0)  -->
<!DOCTYPE svg PUBLIC "-//W3C//DTD SVG 1.1//EN" "http://www.w3.org/Graphics/SVG/1.1/DTD/svg11.dtd">
<svg version="1.1" id="Layer_x5F_1_x5F_1" xmlns="http://www.w3.org/2000/svg" xmlns:xlink="http://www.w3.org/1999/xlink" x="0px"
	 y="0px" width="713.856px" height="138.116px" viewBox="0 0 713.856 138.116" enable-background="new 0 0 713.856 138.116"
	 xml:space="preserve">
<path fill-rule="evenodd" clip-rule="evenodd" fill="#44233D" d="M416.31,52.313c-0.081,0.1-0.57-0.06-0.69,0
	c-0.4,0.19-0.391,0.5-0.68,0.69c-0.36,0.22-0.74,0.11-1.03,0.34c-0.181,0.14-0.5,0.51-0.69,0.69c-0.77,0.74-1.229,1.76-1.709,2.39
	c-0.671,0.88-0.57,1.19-1.031,2.4c-0.01,0.04-0.31-0.03-0.34,0c-0.1,0.08,0.051,0.56,0,0.69c-1.329,3.31-1.359,9.56-0.689,12.67
	c0.27,1.21,0.12,1.51,0.35,2.4c0.2,0.83,0.78,2.26,1.021,2.739c0.18,0.341,0.14,0.661,0.35,1.03c0.07,0.131,0.58,0.2,0.681,0.34
	c0.22,0.291,0.149,0.771,0.34,1.03c0.12,0.16,0.56,0.17,0.689,0.34c0.25,0.33,0.051,0.76,0.34,1.03c0.2,0.18,0.83,0.21,1.03,0.34
	c0.12,0.08,0.25,0.57,0.34,0.689c0.091,0.111,0.561-0.069,0.69,0c0.199,0.111,0.449,0.561,0.68,0.681
	c1.66,0.851,4.04,0.7,5.49,0.351c1.26-0.311,1.529-0.471,1.71-0.69c0.08-0.1,0.56,0.07,0.68,0c0.19-0.1,0.49-0.54,0.69-0.68
	c0.85-0.601,1.65-1.061,2.05-1.721c0.41-0.649,0.76-0.93,1.03-1.37c0.59-0.95,0.979-1.659,1.369-2.739
	c0.351-0.98,0.9-2.23,1.031-2.74c1.409-5.64,0.529-12.79-1.711-16.44c-0.17-0.27-0.67-0.74-0.689-1.03
	c-0.03-0.51-1.811-2.21-2.05-2.4c-0.25-0.19-0.8-0.2-1.03-0.34c-0.09-0.06-0.19-0.24-0.34-0.35c-0.34-0.22-0.57-0.22-1.03-0.34
	c-0.229-0.06-0.3-0.33-0.34-0.34c-1.301-0.4-3.38-0.57-5.14-0.34c-0.261,0.03-0.311,0.33-0.351,0.34
	C416.769,52.094,416.6,51.954,416.31,52.313z M431.039,91.034c-1.09,1.33-1.62,3.239-2.74,4.789c-0.289,0.391-0.68,0.62-1.03,1.03
	c-0.489,0.561-1.04,1.04-1.709,1.71c-0.271,0.271-0.4,0.81-0.69,1.03c-0.3,0.24-0.76,0.1-1.03,0.34c-0.12,0.12-0.21,0.61-0.34,0.689
	c-0.489,0.311-1.42,0.37-2.05,0.681c-0.23,0.12-0.49,0.58-0.689,0.689c-0.131,0.07-0.601-0.109-0.681,0
	c-0.42,0.5-2.17,0.761-3.43,1.03c-4.771,0.99-11.33,0.83-16.101-0.689c-0.97-0.311-2.13-0.58-3.09-1.03
	c-0.16-0.069,0.03-0.319-0.34-0.34c-0.49-0.021-0.74-0.65-1.37-0.68c-0.55-0.03-1.1-0.661-1.71-1.03
	c-0.45-0.27-0.72-0.631-1.37-1.03c-0.859-0.52-1.81-1.72-2.739-2.739c-0.351-0.381-1.03-0.62-1.37-1.03
	c-0.24-0.28-0.11-0.771-0.351-1.03c-0.13-0.14-0.58-0.189-0.68-0.34c-0.22-0.3-0.18-0.73-0.35-1.03
	c-0.101-0.181-0.32,0.05-0.341-0.34c0,0-0.27-0.93-0.34-1.03c-0.1-0.13-0.62-0.21-0.689-0.34c-0.2-0.38-0.16-0.68-0.341-1.03
	c-0.029-0.06-0.26-1.3-0.34-1.37c-0.04-0.029-0.319,0.05-0.34,0c-0.061-0.12,0.1-0.6,0-0.68c-0.58-0.47-1.01-2.271-1.37-3.43
	c-1.7-5.43-2.62-11.82-2.4-19.53c0.011-0.63-0.069-1.33,0-2.05c0.241-2.72,0.75-6.66,1.37-9.6c0.221-1.07,0.32-1.83,0.681-2.74
	c0.05-0.12-0.091-0.6,0-0.68c0.31-0.26,0.71-1.6,1.03-2.4c0.05-0.12-0.09-0.61,0-0.68c0.31-0.26,0.529-0.62,0.689-1.03
	c0.04-0.12-0.1-0.61,0-0.69c0.03-0.03,0.32,0.04,0.34,0c0.051-0.12-0.1-0.6,0-0.68c0.04-0.04,0.32,0.04,0.34,0
	c0.061-0.13-0.1-0.61,0-0.69c0.041-0.03,0.32,0.05,0.341,0c0.069-0.12-0.101-0.6,0-0.68c0.04-0.04,0.329,0.04,0.35,0
	c0.06-0.13-0.1-0.61,0-0.69c0.04-0.04,0.31,0.05,0.34,0c0.24-0.41,0.38-0.91,0.681-1.37c0.17-0.24,0.529-0.47,0.689-0.68
	c0.149-0.21,0.18-0.47,0.34-0.69c0.32-0.42,0.73-0.66,1.03-1.03c0.88-1.1,1.18-1.96,2.399-2.74c0.511-0.32,1.32-1.11,2.051-1.71
	c0.21-0.17,0.52-0.58,0.689-0.69c0.44-0.28,1.33-0.32,2.051-0.68c0.229-0.12,0.489-0.58,0.689-0.69c0.12-0.07,0.6,0.11,0.69,0
	c0.35-0.43,1.709-0.98,2.739-1.37c0.12-0.04,0.61,0.09,0.68,0c0.461-0.55,3.07-0.85,4.461-1.03c3.899-0.5,8.1-0.4,11.99,0.69
	c0.939,0.26,2.159,0.6,3.08,1.03c0.159,0.07-0.031,0.32,0.34,0.34c0.5,0.03,0.739,0.65,1.369,0.69c0.681,0.03,1.3,0.78,2.061,1.37
	c0.189,0.14-0.061,0.32,0.34,0.34c0.55,0.03,0.891,0.79,1.37,1.37c0.09,0.1,0.64,0.25,0.69,0.34c0.069,0.16-0.11,0.55,0,0.69
	c0.38,0.47,0.93,0.68,1.369,1.37c0.24,0.39,0.381,0.71,0.68,1.02c0.061,0.07,1.011,1.59,1.031,2.06c0.02,0.33,0.439,1.17,1.029,1.37
	c-0.561-2.97-0.29-6.31-0.34-9.93c-0.11-6.68-0.39-12.26-0.689-19.88c-0.07-1.64-0.11-3.56,0-5.13c0.119-1.6,0.25-3.41,0.689-4.12
	c-0.02,0.03,0.71-0.81,1.02-1.02c0.131-0.09,0.601,0.11,0.69,0c0.03-0.04-0.04-0.33,0-0.35c0.12-0.06,0.601,0.1,0.68,0
	c0.511-0.62,1.82-0.47,3.43-0.68c4.641-0.6,9.061-0.78,14.73-0.34c2.261,0.17,4.55,0.5,5.83,1.71c1.75,1.66,1.87,6.07,2.05,10.96
	c0.15,4.06-0.34,8.75-0.34,12.34c0,9.15-0.34,16.24-0.34,25.01c0,11.33,0.13,25.75,0,38.37c-0.061,5.5-0.21,10-2.75,11.989
	c-2.03,1.591-6.45,1.69-10.96,1.711c-4.79,0.03-9.12,0.35-11.3-1.37C431.169,99.184,431.289,95.504,431.039,91.034z"/>
<path fill-rule="evenodd" clip-rule="evenodd" fill="#44233D" d="M28.479,80.754c0.61,0.67,1.57,0.33,2.4,0.34
	c8.85,0.141,18.311,0,28.09,0c3.79,0,7.55-0.221,8.91,1.37c1.021,1.19,0.99,3.2,1.03,4.8c0.02,0.88-0.25,1.68-0.35,2.74
	c-0.05,0.619,0.2,1.26,0,2.05c-0.04,0.189-0.34,0.38-0.34,0.351c-0.2,1.979,0.11,2.989-0.34,4.789
	c-0.08,0.311-0.41,1.011-0.689,1.721c-0.23,0.59-0.97,1.89-1.71,2.39c-0.12,0.09-0.59-0.11-0.689,0c-0.03,0.04,0.05,0.33,0,0.351
	c-0.12,0.06-0.6-0.101-0.681,0c-1.26,1.539-10.689,0.68-13.709,0.68h-32.2c-6.54,0-12.49,0.39-14.73-1.37
	c-3.42-2.68-2.4-14.82-2.4-22.61c0-12.5,0.51-22.42,0-33.92c-0.02-0.55,0.1-1.17,0-1.71c-0.06-0.33-0.32-0.52-0.34-1.03
	c-0.16-3.33,0.649-7.39,0-10.96c-0.061-0.33-0.32-0.52-0.351-1.03c-0.08-1.72,0.05-4.01,0-6.17c-0.08-4.1-0.51-7.01-0.339-11.99
	c0.08-2.37,0.12-4.57,0.69-5.48c0.26-0.42,1.52-1.41,2.399-1.71c0.82-0.29,1.931-0.17,3.42-0.35c4.08-0.48,17.9-1.28,20.56,1.38
	c2.59,2.59,1.71,10.84,1.71,17.81c0,6.57-0.34,13.06-0.34,18.84V80.754z"/>
<path fill-rule="evenodd" clip-rule="evenodd" fill="#44233D" d="M104.54,75.614c-0.26,0.149-0.47,0.8-0.69,1.029
	c-0.44,0.44-1,0.591-1.03,1.021c-0.02,0.38-0.26,0.18-0.34,0.35c-0.62,1.28-1.09,4.359-0.68,6.51c0,0.021,0.31-0.02,0.34,0
	c0.05,0.04,0.36,1.99,0.34,1.711c0.02,0.389,0.24,0.159,0.34,0.339c0.43,0.771,0.5,1.05,1.03,1.37c0.82,0.511,1.1,0.791,2.06,1.03
	c0.18,0.05,0.35,0.35,0.34,0.34c1.75,0.391,4.74-0.24,5.14-0.34c0.49-0.12,0.69-0.13,1.03-0.34c0.24-0.16,0.45-0.2,0.68-0.34
	c1.42-0.88,1.63-1.57,2.06-2.75c0.01-0.03,0.31,0.029,0.34,0c0.09-0.07-0.01-0.89,0-1.021c0.01-0.27,0.34-0.319,0.34-0.35
	c0.22-1.301-0.24-3.72-0.34-4.11c-0.11-0.44-0.33-1.159-0.34-1.37c-0.03-0.489-0.52-1.079-0.69-1.37
	c-0.05-0.089-0.24-0.18-0.34-0.339c-0.359-0.561-0.37-0.391-1.03-0.69c-0.12-0.051-0.2-0.601-0.34-0.68
	c-0.45-0.25-0.89-0.181-1.37-0.341c-0.5-0.17-0.67-0.21-1.37-0.35c-0.48-0.09-1.15-0.33-1.37-0.34c-0.26-0.011-0.35,0.34-0.35,0.34
	C106.939,75.014,105.359,75.134,104.54,75.614z M116.529,95.823c-0.4,0.07-0.8,0.12-1.03,0.351c-0.25,0.24-0.1,0.75-0.34,1.02
	c-0.75,0.841-1.63,1.561-2.74,2.4c-0.25,0.19-0.48,0.54-0.69,0.69c-0.12,0.08-0.59-0.12-0.68,0c-0.3,0.35-1.19,0.64-2.06,1.02
	c-0.17,0.08-0.56,0.65-0.69,0.689c-0.82,0.25-1.06,0.041-2.05,0.341c-0.05,0.02-0.11,0.289-0.34,0.34
	c-5.44,1.36-14.04,1.399-19.53-0.34c-2.79-0.88-5-2.011-6.85-3.42c-0.44-0.341-1.57-1.171-2.06-1.721
	c-0.17-0.18-0.56-0.51-0.69-0.68c-0.08-0.13,0.12-0.6,0-0.69c-0.05-0.039-0.3,0.061-0.34,0c-0.18-0.25-0.13-0.739-0.34-1.02
	c-0.11-0.149-0.6-0.21-0.69-0.35c-0.21-0.36-0.17-0.69-0.34-1.03c-0.2-0.39-0.8-1.439-1.03-2.051c-0.38-1.039-0.3-1.819-0.681-3.079
	c-1.26-4.18-0.51-10.76,1.03-14.74c0.12-0.319,0.13-0.899,0.34-1.37c0.1-0.229,0.58-0.49,0.68-0.68c0.16-0.29,0.15-0.67,0.35-1.03
	c0.13-0.25,0.54-0.47,0.68-0.689c0.25-0.351,0.439-0.721,0.689-1.021c0.561-0.69,1.15-1.23,2.05-2.06c0.28-0.25,0.4-0.8,0.69-1.03
	c0.46-0.36,1.08-0.54,1.71-1.02c0.21-0.16,0.52-0.59,0.69-0.69c0.439-0.26,0.89-0.1,1.37-0.34c0.2-0.11,0.51-0.61,0.68-0.69
	c0.63-0.28,1.43-0.46,2.06-0.68c2.911-1.02,6.42-1.68,9.93-1.72c1.41-0.01,3.51,0.11,5.49,0.35c0.1,0.01,0.62-0.07,0.68,0
	c0.27,0.33,0.47,0.27,1.03,0.34c0.1,0.01,0.63-0.07,0.68,0c0.03,0.03-0.02,0.34,0,0.34c0.53,0.12,1.2,0.21,1.72,0.34
	c0.77,0.21,1.74,0.38,2.39,0.69c0.17,0.08-0.03,0.32,0.35,0.34c0.49,0.03,0.74,0.65,1.37,0.69c0.4,0.02,0.77,0.52,1.03,0.68
	c0.69,0.43,1.61,0.99,2.39,1.72c0.39,0.36,0.95,0.92,1.37,1.37c0.35,0.36,0.59,1.47,1.37,1.37c-0.08-5.21-0.4-8.81-1.71-11.31
	c-0.34-0.65-0.96-1.64-1.71-2.4c-0.15-0.14-0.78-0.83-1.03-1.02c-0.12-0.1-0.59,0.11-0.68,0c-0.49-0.6-0.73-0.61-2.06-1.03
	c0.03,0.01-1.35-0.32-1.37-0.35c-0.35-0.42-0.78-0.15-2.06-0.34c-0.37-0.05-0.73-0.31-1.37-0.34c-3.41-0.17-7.05,0.62-10.62,1.37
	c-1.57,0.33-3.26,0.62-4.79,1.03c-1.37,0.36-2.96,1.23-4.8,1.03c0.01,0-0.1-0.33-0.34-0.35c-2.95-0.15-4.12-3.61-5.14-6.51
	c-0.03-0.07-0.28-0.08-0.34-0.34c-0.14-0.53-0.14-0.85-0.35-1.37c-0.13-0.34-0.22-0.55-0.34-1.03c-0.1-0.38-0.77-1.78-1.03-2.74
	c-0.45-1.64-1.23-3.38-0.68-5.48c-0.04,0.15,0.35-0.35,0.34-0.34c0.08-0.13,0.22-0.93,0.34-1.03c0.1-0.08,1.05-1.1,1.37-1.37
	c0.83-0.68,2.11-0.95,3.09-1.37c0.12-0.05,0.05-0.27,0.34-0.34c0.68-0.17,1.3-0.39,2.05-0.69c0.13-0.05,0.61,0.09,0.689,0
	c0.311-0.38,1.91-0.8,2.74-1.03c0.12-0.03,0.62,0.09,0.69,0c0.35-0.43,2.48-0.76,3.76-1.02c1.34-0.28,2.52-0.5,3.77-0.69
	c2.84-0.44,5.45-0.51,8.23-0.69c0.55-0.03,0.58-0.28,1.02-0.34c3.15-0.38,6.78,0.07,9.939,0.34c7.021,0.61,12.59,1.93,17.47,5.14
	c0.3,0.2,0.45,0.52,0.69,0.69c0.12,0.09,0.589-0.11,0.68,0c0.05,0.05-0.05,0.3,0,0.34c1.42,1.04,2.38,1.68,3.43,3.08
	c0.14,0.2,0.32-0.05,0.34,0.35c0.01,0.09,0.27,0.58,0.34,0.68c0.09,0.12,0.64,0.24,0.69,0.35c0.209,0.47,0.3,0.76,0.68,1.37
	c0.35,0.54,0.57,0.99,1.03,1.71c0.09,0.14,0.31,0.28,0.34,0.34c0.25,0.47,0.1,0.89,0.35,1.37c0.1,0.19,0.62,0.53,0.68,0.69
	c0.22,0.53,0.21,0.96,0.34,1.37c0.32,0.91,0.75,2.52,1.03,3.77c0.41,1.82,0.9,3.73,1.03,5.48c0.48,6.26,0,13.24,0,19.871v9.93
	c0,3.26,0.4,6.699,0,9.6c0,0.011-0.33,0.091-0.34,0.341c-0.02,0.42,0.1,0.97,0,1.369c-0.03,0.09-0.33,0.03-0.34,0.34
	c-0.01,0.091,0.03,0.261,0,0.351c-0.13,0.3-0.33,1.029-0.69,1.71c-0.09,0.18-0.32-0.04-0.34,0.34c-0.05,0.85-1.46,1.24-2.74,1.71
	c-0.14,0.061,0.01,0.33-0.35,0.351c-1.03,0.05-0.94,0.14-2.05,0.339c-3.64,0.65-11.59,0.98-15.42,0
	c-0.49-0.129-0.91-0.109-1.37-0.339c-0.25-0.131-0.47-0.54-0.68-0.69c-0.13-0.08-0.6,0.109-0.69,0c-0.23-0.28-0.11-0.7-0.34-1.03
	c-0.09-0.12-0.64-0.229-0.69-0.34C116.819,98.734,116.479,97.493,116.529,95.823z"/>
<path fill-rule="evenodd" clip-rule="evenodd" fill="#44233D" d="M181.959,47.864c0.94-0.33,0.8-1.51,1.03-2.06
	c0.33-0.77,0.7-1.38,1.03-2.05c0.7-1.43,1.26-2.63,2.06-3.77c0.13-0.19,0.32,0.05,0.34-0.34c0.02-0.36,0.65-0.91,1.03-1.38
	c0.08-0.1,0.64-0.24,0.68-0.34c0.2-0.43,0.19-0.87,0.69-1.37c0.56-0.57,1.63-1.09,2.39-1.71c0.47-0.38,0.59-0.7,1.03-1.03
	c1.18-0.89,3.09-1.84,4.8-2.74c0.22-0.12,0.45-0.19,0.68-0.34c0.32-0.21,1.86-0.81,2.75-1.03c1.02-0.26,2-0.46,3.42-0.69
	c0.44-0.06,0.94,0.11,1.37,0c2.47-0.58,6.63-0.12,9.25,0.69c0.85,0.26,1.9,0.44,2.4,0.69c0.17,0.08-0.03,0.32,0.34,0.34
	c0.29,0.01,1.02,0.43,1.37,0.68c0.12,0.09,0.24,0.64,0.35,0.69c0.16,0.07,0.55-0.11,0.68,0c0.93,0.76,1.9,2.16,2.74,3.42
	c0.13,0.2,0.32-0.05,0.34,0.35c0.01,0.16,0.26,0.49,0.35,0.68c0.13,0.28,0.16,0.68,0.34,1.03c0.11,0.22,0.58,0.49,0.68,0.68
	c0.4,0.73,0.69,2.2,1.03,3.43c0.14,0.48,0.11,0.79,0.35,1.71c0.23,0.93,0.9,3.74,1.02,5.49c0.61,8.34-0.04,15.81-0.34,23.979
	c-0.02,0.561,0.07,1.15,0,1.711c-0.81,6.64,1.54,22.4-3.08,26.039c-1.59,1.25-3.04,1.091-5.14,1.37
	c-3.54,0.471-11.94,0.921-15.42-0.339c-1.94-0.7-2.26-1.23-3.08-3.431c-0.05-0.13-0.33,0.011-0.35-0.34
	c-0.05-1.04-0.14-0.94-0.34-2.061c-0.87-5-0.34-13.149-0.34-18.839c0-5.391,0.33-11.161,0-16.101c-0.06-0.85-0.12-2.12-0.34-2.74
	c-0.05-0.14-0.33,0-0.35-0.35c-0.05-0.94-1.66-2.32-2.74-2.74c-0.12-0.04-0.6,0.1-0.68,0c-1.03-1.26-5.43,0.35-6.51,1.03
	c-0.19,0.12,0.05,0.32-0.34,0.34c-0.59,0.03-1.25,1.17-1.72,1.72c-0.28,0.33-0.84,0.76-1.02,1.02c-0.09,0.13,0.11,0.6,0,0.69
	c-0.63,0.51-0.86,1.02-1.37,2.4c-0.37,1-0.75,1.84-1.03,3.08c-0.05,0.22,0.05,0.47,0,0.69c-0.1,0.38-0.21,0.68-0.35,1.71
	c-0.57,4.37-0.34,12.459-0.34,18.5c0,5.829,0.13,12.089-2.74,14.389c-1.19,0.95-3.21,1.101-5.14,1.37
	c-3.19,0.45-8.63,0.711-12.33,0.341c-1.59-0.15-3.7-0.511-4.8-1.37c-2.63-2.06-2.4-9.68-2.4-16.1c0-7.391-0.31-11.53-0.34-17.82
	c-0.03-5.25-0.09-11.38-0.34-18.15c-0.18-4.75-1.38-14.32,0.68-16.79c1.8-2.15,9.02-2.06,13.37-2.06c2.02,0,3.65-0.21,5.82,0
	c2.09,0.21,5.86,0.49,7.19,2.06c1.32,1.55,1.3,4.34,1.37,7.19C182.039,41.994,181.909,45.044,181.959,47.864z"/>
<path fill-rule="evenodd" clip-rule="evenodd" fill="#44233D" d="M376.909,32.444c-0.1,1.88,0.12,3.27-0.35,5.14
	c-0.05,0.22-0.341,0.33-0.341,0.34c-0.289,1.72-0.359,3.53-0.68,5.14c-0.01,0.05-0.33,0.06-0.35,0.34
	c-0.04,0.86-0.171,1.15-0.34,2.06c-0.181,0.94-0.11,1.96-0.34,2.74c-0.031,0.1-0.33,0.02-0.341,0.34
	c-0.04,0.68-0.069,0.96-0.35,1.37c-0.271,0.42-0.76,1.47-1.37,2.06c-5.1,1.23-7.471-0.85-12.33-0.69c-2.88,0.1-5.24,0.87-6.85,1.72
	c-0.36,0.18-0.42,0.49-0.69,0.68c-0.12,0.09-0.59-0.11-0.68,0c-0.24,0.28-0.4,1-1.03,1.03c-0.64,0.03-1.38,1.43-2.06,2.4
	c-0.13,0.19-0.32-0.06-0.34,0.34c-0.03,0.64-0.64,0.85-1.03,1.37c-0.09,0.12,0.12,0.59,0,0.69c-0.35,0.28-0.93,1.71-1.37,3.08
	c-0.26,0.8-0.47,1.62-0.68,2.4c-0.03,0.11,0.08,0.62,0,0.68c-0.52,0.43-0.46,2.33-0.69,3.77c0,0.03-0.33,0.08-0.34,0.34
	c-0.29,5.42-0.11,13.819-0.34,20.56c-0.01,0.24,0.16,1.58,0,1.71c-0.58,0.47-0.1,2.52-0.35,3.77c-0.01,0.05-0.32,0.061-0.34,0.351
	c-0.02,0.399,0.12,0.98,0,1.37c-0.03,0.1-0.32,0.01-0.34,0.34c-0.03,0.489-0.65,0.739-0.69,1.37c-0.03,0.67-2.08,2.15-3.08,2.4
	c-2.44,0.609-5.78,0.68-9.25,0.68c-3.88,0-8.71,0.4-10.96-1.37c-2.82-2.221-2.4-10.07-2.4-16.1c0-9.181-0.16-14.721-0.34-22.61
	c-0.02-0.82,0.08-1.55,0-2.4c-0.26-2.69-0.18-6.45-0.35-10.96c-0.16-4.38-1.53-14.14,0.69-16.79c1.8-2.16,8.88-2.06,13.36-2.06
	c1.86,0,3.74-0.2,5.82,0c2.09,0.21,5.88,0.5,7.2,2.06c1.31,1.55,1.29,4.4,1.37,7.19c0.06,2.3-0.05,5.16,0,8.23
	c0.77-0.48,0.72-1.65,1.03-2.4c0.28-0.68,0.73-1.43,1.02-2.06c0.61-1.3,1.24-2.82,2.06-4.11c0.21-0.32,0.69-0.56,1.03-1.03
	c0.59-0.82,0.82-1.51,1.71-2.4c0.36-0.36,0.71-0.72,1.03-1.02c0.31-0.3,0.59-0.68,1.03-1.03c0.33-0.27,1-0.41,1.37-0.69
	c0.4-0.3,0.67-0.78,1.02-1.02c0.23-0.16,0.44-0.19,0.69-0.35c0.33-0.21,1.88-1.15,2.74-1.37c0.89-0.22,2.27-0.79,3.43-1.03
	c0.43-0.09,0.93,0.11,1.37,0c0.77-0.18,2.66-0.46,4.791-0.34c0.569,0.04,1.06,0.27,1.72,0.34c0.739,0.09,1.6-0.12,2.05,0
	c0.09,0.03,0.029,0.33,0.34,0.35C374.479,29.454,375.889,31.214,376.909,32.444z"/>
<path fill-rule="evenodd" clip-rule="evenodd" fill="#44233D" d="M541.359,33.474c0.119,2.06-0.48,3.41-1.37,4.45
	c-1.25,0.79-2.69-0.05-3.771-0.34c-1.16-0.31-2.34-0.76-3.43-1.03c-3.42-0.85-7.15-1.74-11.99-1.37c-3.08,0.24-6.939,1.27-9.59,2.74
	c-0.33,0.18-0.63,0.67-1.029,0.69c-0.48,0.02-0.53,0.64-1.03,1.03c-0.12,0.09-0.59-0.12-0.681,0c-0.5,0.6-1.319,1.51-2.06,2.39
	c-0.08,0.11-0.641,0.25-0.681,0.35c-0.079,0.16,0.101,0.54,0,0.68c-0.239,0.3-0.799,0.4-1.029,0.69c-0.1,0.12,0.11,0.59,0,0.68
	c-0.1,0.09-0.63,0.24-0.689,0.35c-0.271,0.44-0.11,0.89-0.341,1.37c-0.08,0.16-0.319-0.04-0.34,0.34c-0.02,0.3-0.39,0.91-0.69,1.37
	c-0.209,0.33-0.22,0.54-0.34,1.03c-0.08,0.32-0.289,0.2-0.34,0.34c-0.74,1.93-1.19,4.29-1.72,6.51c-0.229,1-0.12,1.59-0.34,3.08
	c-0.131,0.89-0.24,2.7-0.34,4.46c-0.05,0.8-0.341,1.93-0.341,2.74c-0.01,0.91,0.271,1.85,0.341,2.74c0.069,0.979-0.081,1.83,0,2.74
	c0.43,5.02,1.64,10.3,3.43,14.39c0.06,0.15,0.32-0.029,0.34,0.341c0,0,0.271,0.939,0.34,1.029c0.11,0.15,0.6,0.2,0.69,0.34
	c0.07,0.131-0.11,0.601,0,0.69c0.51,0.42,0.55,0.63,1.02,1.37c0.131,0.189,0.32-0.061,0.35,0.34c0.011,0.26,2.141,2.6,2.74,3.08
	c0.28,0.229,0.75,0.13,1.021,0.34s0.36,0.47,0.69,0.69c0.25,0.159,0.75,0.14,1.029,0.34c0.13,0.1,0.221,0.619,0.34,0.689
	c0.68,0.35,1.5,0.36,2.4,0.68c0.08,0.03,0.08,0.28,0.34,0.351c1.53,0.38,3.92,1.18,6.17,1.37c4.051,0.329,7.24-0.41,10.28-1.03
	c1.59-0.33,3.25-0.609,4.79-1.029c1.34-0.37,2.689-1.311,4.46-1.03c0.59,0.66,0.8,1.619,1.021,2.399
	c0.17,0.561,0.479,1.131,0.35,1.71c-0.41,1.81-2.92,2.391-5.141,3.091c-0.75,0.229-0.709,0.089-1.72,0.339
	c-0.26,0.061-0.271,0.33-0.34,0.341c-1.44,0.359-3.101,0.43-4.79,0.689c-0.311,0.04-0.561,0.28-1.03,0.341
	c-8.149,1.079-17-0.141-22.61-3.431c-0.219-0.12-0.489-0.569-0.689-0.68c-0.13-0.07-0.6,0.1-0.68,0c-0.24-0.28-0.4-1-1.03-1.03
	c-0.49-0.02-2.819-2.47-3.43-3.08c-0.32-0.32-0.8-0.75-1.03-1.029c-0.09-0.121,0.12-0.591,0-0.69c-0.33-0.27-0.42-0.33-0.68-0.681
	c-0.32-0.43-0.87-0.759-1.03-1.029c-0.21-0.35-0.17-0.7-0.34-1.03c-0.61-1.18-1.81-3.47-2.4-5.14c-3.67-10.41-3.68-27.93,0-38.37
	c0.35-0.98,0.92-2.11,1.37-3.08c0.25-0.53,1-1.47,1.03-2.06c0.03-0.54,0.649-1.1,1.03-1.71c0.129-0.21,0.18-0.46,0.34-0.68
	c0.229-0.34,0.76-0.69,1.029-1.03c1-1.28,1.461-2.13,2.74-3.09c0.49-0.37,1.01-0.82,1.71-1.37c0.22-0.17,0.47-0.53,0.69-0.68
	c1.33-0.93,2.659-1.43,4.109-2.06c0.15-0.07-0.029-0.32,0.341-0.34c0.75-0.04,0.919-0.41,1.709-0.68
	c2.171-0.76,4.671-1.06,7.881-1.38c0.61-0.06,0.739-0.29,1.369-0.34c2.2-0.17,4.471,0.12,6.511,0.34c1.68,0.19,2.91,0.35,4.46,0.69
	c0.21,0.05,0.47-0.05,0.68,0c0.24,0.06,0.3,0.33,0.341,0.34c0.959,0.21,2.079,0.1,3.09,0.35c0.069,0.01,0.029,0.32,0.34,0.34
	c0.09,0,0.26-0.04,0.34,0c0.4,0.16,0.779,0.04,1.71,0.34c0.12,0.04,0.01,0.33,0.35,0.34c0.091,0.01,0.261-0.03,0.341,0
	C538.739,31.744,540.829,32.264,541.359,33.474z"/>
<path fill-rule="evenodd" clip-rule="evenodd" fill="#44233D" d="M574.779,35.524c-2.34,0.36-4.051,1.03-5.48,1.72
	c-0.18,0.09-0.49-0.09-0.68,0c-0.109,0.05-0.22,0.6-0.351,0.68c-0.149,0.11-0.509-0.08-0.68,0c-0.11,0.05-0.22,0.6-0.34,0.69
	c-0.16,0.1-0.51-0.08-0.69,0c-0.109,0.05-0.22,0.6-0.34,0.68c-0.459,0.32-1.06,0.4-1.369,0.69c-0.551,0.51-0.801,1.29-1.371,2.05
	c-0.1,0.13-0.56,0.24-0.689,0.35c-0.109,0.09,0.09,0.56,0,0.68c-0.109,0.16-0.561,0.18-0.68,0.34c-0.28,0.37-0.16,0.96-0.341,1.38
	c-0.06,0.12-0.609,0.19-0.689,0.34c-0.37,0.71-0.5,1.76-0.69,2.05c-0.459,0.73-0.859,2.35-1.02,2.74c-0.28,0.7-0.3,0.93-0.351,1.72
	c-0.009,0.29-0.319,0.27-0.339,0.34c-0.23,1.01-0.161,2.29-0.341,3.43c-0.079,0.48-0.25,0.67-0.34,1.37c-0.06,0.44,0.02,0.92,0,1.37
	c-0.021,0.23-0.35,0.36-0.35,0.34c-0.36,3.89-0.101,7.4,0,10.28c0.1,2.601,0.229,6.01,0.689,7.53c0.32,1.079,0.19,1.699,0.341,2.399
	c0.209,0.971,0.399,2.13,0.689,3.091c0.33,1.12,1.18,3.67,1.71,4.109c0.101,0.08-0.061,0.561,0,0.68c0.021,0.041,0.3-0.029,0.34,0
	c0.11,0.091-0.06,0.561,0,0.69c0.07,0.12,0.591,0.21,0.69,0.34c0.199,0.27,0.189,0.79,0.34,1.03c0.3,0.48,0.72,1.29,1.029,1.71
	c0.11,0.149,0.551,0.2,0.681,0.34c0.55,0.59,0.63,1.31,1.03,1.721c0.529,0.52,0.859,0.449,1.369,0.68
	c0.11,0.05,0.221,0.6,0.341,0.689c0.11,0.07,0.59,0.33,0.689,0.341c0.49,0.029,0.57,0.659,1.03,0.689
	c0.391,0.02,0.149,0.22,0.34,0.34c0.62,0.391,1.79,0.8,2.4,1.03c0.859,0.311,1.47,0.63,2.4,0.68c0.27,0.02,0.299,0.34,0.34,0.34
	c0.43,0.08,0.93-0.02,1.369,0c0.25,0.021,0.34,0.341,0.34,0.351c2.271,0.279,5.57,0.329,8.221,0c0.02-0.01-0.011-0.32,0-0.351
	c0.06-0.07,0.59,0.021,0.689,0c0.561-0.06,0.75-0.01,1.03-0.34c0.07-0.09,0.9,0.011,1.03,0c0.32-0.02,0.23-0.31,0.34-0.34
	c1.25-0.38,2.53-0.56,3.42-1.029c0.05-0.021-0.029-0.301,0-0.341c0.1-0.109,0.57,0.08,0.689,0c0.23-0.159,0.41-0.5,0.681-0.689
	c0.31-0.211,0.43-0.48,0.69-0.681c0.27-0.21,0.75-0.119,1.029-0.35c1.03-0.86,2.83-3.15,3.42-4.11c0.381-0.609,1-1.159,1.03-1.71
	c0.03-0.619,0.75-1.43,1.03-2.06c0.43-0.96,0.81-1.87,1.029-2.74c0.17-0.7,0.471-1.11,0.681-2.05c1.25-5.57,2.08-12.21,1.71-18.5
	c-0.02-0.35-0.28-0.4-0.34-0.69c-0.271-1.24,0.119-2.34,0-3.42c-0.03-0.35-0.28-0.4-0.34-0.69c-0.07-0.32,0.05-0.7,0-1.03
	c-0.24-1.68-0.551-5.15-1.371-5.82c-0.09-0.07,0.011-0.9,0-1.03c-0.02-0.33-0.31-0.23-0.34-0.34c-0.1-0.31,0.09-0.72,0-1.03
	c-0.039-0.13-0.62-0.51-0.689-0.68c-0.26-0.65-0.1-1.17-0.34-1.72c-0.021-0.04-0.311,0.03-0.341,0c-0.109-0.08,0.07-0.56,0-0.68
	c-0.109-0.2-0.56-0.47-0.689-0.69c-0.04-0.06,0-0.26,0-0.34c-0.021-0.36-0.5-0.76-0.68-1.03c-0.671-0.96-2.62-3.72-3.431-3.77
	c-0.399-0.02-0.149-0.22-0.34-0.34c-0.6-0.39-1.72-1.35-2.06-1.37c-0.38-0.02-0.17-0.25-0.341-0.34
	c-0.479-0.25-0.879-0.15-1.369-0.35c-0.67-0.26-1.801-0.86-2.4-1.02c-1.55-0.41-2.84-0.58-4.449-0.69c-2.051-0.14-4.83-0.26-7.201,0
	c-0.22,0.03-0.35,0.35-0.34,0.34C575.239,35.563,575.01,35.494,574.779,35.524z M576.839,29.014c-0.04,0.01,0.13-0.32,0.341-0.34
	c2.199-0.15,5.539,0.13,7.879,0.34c0.44,0.04,0.951-0.09,1.371,0c0.76,0.18,3.06,0.64,4.109,1.03c0.12,0.05,0.61-0.09,0.689,0
	c0.24,0.29,1.101,0.36,2.051,0.69c0.07,0.02,0.1,0.28,0.35,0.34c0.51,0.13,0.881,0.12,1.37,0.34c0.229,0.11,0.49,0.58,0.681,0.69
	c0.39,0.21,0.689,0.14,1.029,0.34c0.551,0.32,1.25,0.71,1.71,1.03c0.48,0.32,0.94,1.03,1.37,1.37c0.62,0.48,1.311,0.63,1.721,1.03
	c0.64,0.62,1.09,1.58,1.709,2.39c0.25,0.34,0.721,0.58,1.03,1.03c0.15,0.23,0.181,0.44,0.34,0.69c0.8,1.26,2,3.61,2.74,5.48
	c2.58,6.53,3.37,14.52,3.08,23.98c-0.08,2.76-0.46,5.74-1.021,8.57c-0.05,0.25,0.17,1.2,0,1.37c-0.189,0.189-0.459,0.82-0.689,1.71
	l-0.34,1.37c-0.26,0.99-0.37,2.229-0.69,3.08c-0.05,0.14-0.319,0-0.34,0.35c-0.01,0.17-0.25,0.479-0.34,0.68
	c-0.32,0.74-0.66,1.61-1.03,2.4c-0.33,0.71-0.81,1.511-1.37,2.399c-0.189,0.311-0.51,0.44-0.68,0.681
	c-0.09,0.13,0.109,0.601,0,0.689c-0.32,0.25-0.92,0.82-1.38,1.371c-0.891,1.069-2.11,2.31-3.42,3.43c-0.4,0.329-0.91,0.68-1.37,1.02
	c-0.351,0.271-0.729,0.851-1.03,1.03c-0.12,0.08-0.6-0.109-0.68,0c-0.04,0.04,0.04,0.32,0,0.34c-0.13,0.06-0.61-0.1-0.69,0
	c-0.03,0.051,0.04,0.33,0,0.351c-0.12,0.06-0.6-0.101-0.68,0c-0.04,0.039,0.04,0.319,0,0.339c-0.13,0.061-0.61-0.1-0.69,0
	c-0.029,0.041,0.041,0.32,0,0.341c-0.119,0.06-0.6-0.1-0.689,0c-0.03,0.04,0.05,0.32,0,0.34c-0.12,0.061-0.6-0.1-0.68,0
	c-0.16,0.189-0.681,0.45-1.371,0.689c-4.31,1.511-10.199,1.871-15.76,1.371c-0.729-0.07-1.42,0.1-2.06,0
	c-0.021,0-0.08-0.33-0.34-0.341c-0.44-0.03-0.94,0.08-1.37,0c-0.04-0.01-0.061-0.33-0.34-0.35c-1-0.051-1.45-0.439-2.4-0.681
	c-0.72-0.18-0.779-0.029-1.71-0.339c-0.12-0.04-0.01-0.331-0.35-0.351c-0.08,0-0.261,0.04-0.341,0
	c-0.229-0.09-0.489-0.58-0.68-0.681c-0.67-0.359-1.14-0.289-2.06-0.689c-0.16-0.061,0.03-0.319-0.341-0.34
	c-0.359-0.021-1.779-1.21-2.399-1.71c-1.38-1.12-2.43-2.261-3.771-3.77c-0.08-0.091-0.64-0.25-0.68-0.341
	c-0.08-0.159,0.1-0.55,0-0.689c-0.229-0.28-0.84-0.4-1.029-0.68c-0.28-0.411-0.101-0.92-0.34-1.37
	c-0.08-0.15-0.631-0.221-0.69-0.351c-0.301-0.66-0.37-1.029-0.69-1.71c-0.16-0.351-0.65-0.84-0.68-1.37
	c-0.01-0.17-0.26-0.48-0.34-0.689c-0.28-0.641-0.381-1.271-0.69-2.05c-0.13-0.341-0.22-0.551-0.34-1.03
	c-0.13-0.511-0.8-2.07-1.03-3.08c-0.189-0.87-0.17-1.79-0.34-2.74c-0.01-0.04-0.33-0.07-0.34-0.35c-0.07-1.291-0.58-3.58-0.689-5.13
	c-0.471-6.44-0.15-14.75,1.029-20.221c0.051-0.21-0.05-0.47,0-0.68c0.06-0.25,0.33-0.3,0.34-0.35c0.2-0.87,0.101-1.92,0.34-2.74
	c0.021-0.04,0.291-0.11,0.351-0.34c0.17-0.7,0.01-0.81,0.34-1.71c0.06-0.18,0.649-0.56,0.681-0.69c0.1-0.3-0.121-0.74,0-1.02
	c0.109-0.24,0.579-0.5,0.689-0.69c0.069-0.13-0.11-0.6,0-0.69c0.59-0.48,1.39-2.41,2.061-3.42c0.189-0.3,0.509-0.45,0.68-0.69
	c0.09-0.12-0.11-0.59,0-0.68c0.06-0.05,0.3,0.05,0.34,0c1.239-1.66,1.89-2.48,3.43-3.77c0.7-0.59,1.13-0.86,2.06-1.37
	c0.181-0.1-0.05-0.32,0.341-0.34c0.439-0.03,0.43-0.5,0.68-0.69c0.12-0.09,0.59,0.11,0.689,0c0.031-0.04-0.049-0.32,0-0.34
	c0.121-0.07,0.601,0.1,0.681,0c0.04-0.04-0.04-0.32,0-0.34c0.13-0.06,0.609,0.1,0.69,0c0.029-0.04-0.041-0.33,0-0.35
	c0.52-0.22,1.109-0.11,1.709-0.34c0.141-0.05-0.01-0.32,0.341-0.34c0.79-0.04,1.34-0.4,2.399-0.69c1.99-0.53,4.211-1.04,6.851-1.03
	C576.379,29.024,576.619,29.034,576.839,29.014z"/>
<path fill-rule="evenodd" clip-rule="evenodd" fill="#44233D" d="M672.619,49.914c0.53-0.58,0.48-1.41,0.689-2.05
	c0.341-1.08,0.811-2.41,1.371-3.77c0.319-0.8,0.6-1.42,1.02-2.06c0.25-0.37,0.45-0.64,0.689-1.02c0.15-0.24,0.141-0.77,0.34-1.03
	c0.121-0.16,0.58-0.19,0.69-0.34c0.23-0.34,0.08-0.75,0.341-1.03c0.129-0.15,0.579-0.19,0.689-0.35c0.08-0.12-0.12-0.59,0-0.68
	c1.01-0.83,2.33-2.48,3.76-3.43c0.2-0.12-0.05-0.32,0.35-0.34c0.291-0.01,0.851-0.68,1.371-1.03c3.89-2.61,8.93-4.31,14.039-4.11
	c1.16,0.05,3.05,0.32,4.461,0.69c0.589,0.16,1.739,0.72,2.399,1.03c0.26,0.12,0.689,0.16,1.021,0.34
	c0.239,0.13,0.479,0.55,0.689,0.68c0.7,0.44,1.52,0.74,2.4,1.72c0.17,0.19,0.56,0.51,0.68,0.68c0.09,0.12-0.109,0.59,0,0.69
	c0.061,0.04,0.311-0.06,0.35,0c0.75,1.05,1.181,2.21,1.711,3.42c0.75,1.74,1.33,3.43,1.709,5.83c0.07,0.44-0.1,0.94,0,1.37
	c0.791,3.34,0.34,10.02,0.34,15.07c0,11.6,0.07,23.74,0,35.629c-0.01,2.11,0.41,4.36-0.68,6.17c-1.539,0.521-4.63,0.521-6.17,0
	c-0.89-2.02-0.66-4.199-0.68-6.509c-0.12-10.851,0-22.841,0-34.261c0-6.01,0.62-12.58-0.689-17.13c-0.031-0.1-0.32-0.02-0.341-0.34
	c-0.03-0.54-0.2-0.62-0.34-1.03c-0.17-0.49-0.101-0.9-0.351-1.37c-0.09-0.18-0.319,0.04-0.34-0.34c-0.02-0.45-0.51-0.44-0.689-0.69
	c-0.08-0.12,0.12-0.59,0-0.68c-0.6-0.5-1.5-1.49-2.391-2.06c-0.319-0.2-1.58-0.7-2.399-1.03c-0.181-0.07-0.33-0.34-0.34-0.34
	c-5.14-1.48-10.73,0.36-13.71,2.4c-0.19,0.13,0.06,0.32-0.341,0.34c-0.1,0.01-0.579,0.27-0.689,0.34
	c-0.11,0.09-0.229,0.64-0.34,0.69c-0.16,0.07-0.56-0.11-0.681,0c-0.689,0.58-1.369,1.57-2.06,2.4c-0.33,0.39-0.67,0.58-1.03,1.02
	c-0.26,0.34-0.43,1-0.68,1.38c-0.14,0.2-0.58,0.49-0.689,0.68c-0.07,0.13,0.109,0.6,0,0.69c-0.551,0.45-1.24,1.64-1.711,2.74
	c-0.05,0.12,0.101,0.6,0,0.68c-0.039,0.03-0.319-0.04-0.34,0c-0.06,0.13,0.101,0.6,0,0.69c-0.28,0.23-0.24,0.26-0.35,0.68
	c0.01-0.01-0.311,1.01-0.34,1.03c-0.54,0.44-0.71,2.16-1.03,3.43c-0.01,0.07-0.319,0.03-0.34,0.34c-0.021,0.43,0.1,0.95,0,1.37
	c-0.011,0.06-0.33,0.04-0.34,0.34c-0.021,0.44,0.069,0.94,0,1.37c-0.011,0.04-0.33,0.07-0.341,0.34c-0.029,0.45,0.07,0.94,0,1.37
	c-0.01,0.04-0.33,0.08-0.35,0.35c-0.02,0.45,0.06,0.92,0,1.37c-1.109,8.52-0.34,21.27-0.34,31.17c0,3.16,0.49,6.38-1.03,8.569
	c-1.45,0.521-4.37,0.521-5.82,0c-1.1-1.819-0.68-4.06-0.689-6.17c-0.03-6.119,0-12.81,0-19.529c0-9.19,0.53-18.46,0-26.38
	c-0.19-2.94-0.76-6.17-2.05-8.56c-0.59-1.09-1.24-1.6-2.061-2.4c-0.359-0.35-0.619-1.08-1.02-1.37c-0.13-0.09-0.6,0.11-0.689,0
	c-0.031-0.04,0.039-0.32,0-0.34c-0.131-0.06-0.601,0.1-0.69,0c-0.03-0.04,0.05-0.32,0-0.35c-0.61-0.29-1.17-0.15-1.71-0.34
	c-0.12-0.04,0-0.32-0.341-0.34c-0.089-0.01-0.259,0.03-0.339,0c-1.36-0.54-5.681-0.43-7.201,0c-0.109,0.03-0.609-0.09-0.68,0
	c-0.229,0.28-0.92,0.37-1.72,0.68c-2.149,0.84-4.11,2.12-5.819,3.77c-1.19,1.15-2.121,2.28-3.08,3.77
	c-0.131,0.19-0.33-0.05-0.351,0.35c-0.021,0.52-0.96,1.64-1.37,2.39c-0.43,0.79-0.949,1.62-1.37,2.74
	c-0.32,0.87-0.31,1.63-0.68,2.74c-0.04,0.13-0.33,0.01-0.351,0.35c0,0.13-0.109,1.53-0.34,1.71c-0.18,0.15-0.459,0.79-0.68,1.71
	c-0.12,0.51-0.24,1.19-0.35,1.72c-2.37,11.971-0.061,29.561-1.37,43.511c-1.14,0.109-1.521,0.989-3.08,0.68
	c-1.25,0.109-2.229-0.05-3.08-0.341c-1.44-1.859-1.03-4.89-1.03-8.22v-45.57c0-5.98-0.34-11.93,0-17.47c1.76-0.89,5.82-1.07,7.54,0
	c0.771,5.51,0.13,12.43,0.341,18.5c0.64-0.73,0.719-1.89,1.029-2.74c0.5-1.4,1.141-3.02,2.05-4.46c0.25-0.38,0.39-0.71,0.69-1.02
	c0-0.01,0.359-0.39,0.34-0.35c0.23-0.42,0.061-0.96,0.34-1.37c0.221-0.31,0.721-0.61,1.03-1.03c1.029-1.36,2.819-3.15,4.45-4.45
	c0.619-0.49,1.369-0.94,2.06-1.37c0.19-0.12-0.05-0.32,0.34-0.34c0.05,0,0.87-0.25,1.03-0.34c0.141-0.09,0.22-0.64,0.34-0.69
	c0.19-0.08,0.5,0.09,0.69,0c0.96-0.47,2-0.94,3.079-1.37c0.121-0.05,0.61,0.09,0.69,0c0.36-0.44,0.58-0.12,1.71-0.34
	c0.051-0.01,0.061-0.33,0.34-0.35c0.34-0.01,0.7,0.05,1.03,0c1.729-0.25,3.56-0.38,6.17,0c1.28,0.19,2.931,0.35,3.771,0.69
	c0.14,0.06-0.021,0.32,0.34,0.34c0.31,0.02,0.989,0.44,1.37,0.69c1.52,0.98,3.149,2.4,4.45,4.11c0.52,0.67,1.25,1.91,1.72,3.08
	c0.04,0.12-0.101,0.61,0,0.69c0.36,0.3,0.38,0.99,0.68,2.05c0.03,0.1,0.33,0.02,0.34,0.35c0.011,0.12-0.079,0.95,0,1.02
	c0.46,0.38,0.54,2.7,0.69,4.12C672.409,47.454,672.739,48.594,672.619,49.914z"/>
<path fill-rule="evenodd" clip-rule="evenodd" fill="#44233D" d="M305.299,31.764c1.65,2.18,1.35,5,1.37,7.53
	c0.15,14.11-0.52,28.39-2.4,41.11c-0.6,4.119-1.38,8.43-2.39,12.68c-0.66,2.78-1.63,6.64-2.74,9.59c-0.05,0.13,0.09,0.61,0,0.69
	c-0.04,0.029-0.33-0.041-0.35,0c-0.46,1.279-0.87,2.509-1.37,3.77c-0.05,0.12,0.1,0.609,0,0.68c-0.31,0.26-0.53,0.62-0.68,1.03
	c-0.05,0.12,0.09,0.609,0,0.69c-0.04,0.029-0.33-0.041-0.35,0c-0.05,0.12,0.1,0.6,0,0.68c-0.04,0.029-0.32-0.04-0.34,0
	c-0.06,0.13,0.1,0.609,0,0.69c-0.04,0.029-0.32-0.051-0.34,0c-0.06,0.119,0.1,0.6,0,0.68c-0.04,0.03-0.32-0.04-0.34,0
	c-0.06,0.13,0.1,0.609,0,0.689c-0.04,0.03-0.32-0.05-0.35,0c-0.06,0.12,0.11,0.6,0,0.68c-0.04,0.04-0.32-0.039-0.34,0
	c-0.06,0.131,0.1,0.61,0,0.69c-0.5,0.41-1.14,2.091-1.71,3.08c-0.11,0.181-0.32-0.05-0.34,0.34c-0.04,0.64-0.64,0.86-1.03,1.38
	c-0.09,0.12,0.11,0.591,0,0.68c-0.59,0.48-1.35,1.781-2.06,2.741c-0.59,0.8-1.35,1.589-2.05,2.399c-0.7,0.8-1.25,1.58-2.06,2.4
	c-0.68,0.68-1.38,1.47-2.05,2.05c-0.28,0.239-0.78,0.109-1.03,0.35c-0.15,0.131-0.19,0.56-0.34,0.68c-0.37,0.28-1.04,0.44-1.38,0.69
	c-0.43,0.31-0.68,0.801-1.02,1.02c-0.45,0.301-0.96,0.44-1.37,0.69c-0.32,0.19-0.44,0.511-0.69,0.681c-0.12,0.089-0.59-0.11-0.68,0
	c-0.04,0.049,0.04,0.319,0,0.35c-0.13,0.069-0.6-0.11-0.69,0c-0.03,0.04,0.04,0.319,0,0.34c-0.12,0.061-0.6-0.101-0.68,0
	c-0.04,0.04,0.04,0.32,0,0.34c-0.13,0.07-0.61-0.1-0.69,0c-0.03,0.04,0.04,0.32,0,0.341c-0.12,0.06-0.6-0.101-0.68,0
	c-0.04,0.049,0.04,0.329,0,0.35c-0.13,0.06-0.61-0.1-0.69,0c-0.03,0.04,0.04,0.32,0,0.34c-0.12,0.061-0.6-0.101-0.69,0
	c-0.64,0.79-3.58,1.3-5.13,1.71c-0.93,0.25-1.77,0.5-2.75,0.689c-4.76,0.9-10.07,0.971-16.1,0.681c-0.3-0.011-0.74,0.09-1.03,0
	c-0.27-0.08-1-0.25-2.05-0.341c-0.22-0.02-0.48,0.051-0.69,0c-0.74-0.189-3.41-0.729-4.79-1.029c-0.22-0.04-0.47,0.061-0.69,0
	c-0.32-0.08-0.86-0.189-1.37-0.34c-0.35-0.11-0.83-0.18-1.37-0.341c-0.35-0.109-0.83-0.179-1.37-0.35
	c-0.32-0.09-0.57-0.22-1.03-0.34c-0.32-0.08-0.19-0.279-0.34-0.34c-0.79-0.31-1.8-0.29-2.4-0.689c-0.27-0.181-1.14-1.171-1.37-1.71
	c-0.63-1.54-0.1-3.471,0.34-5.48c0.48-2.17,1.17-4.09,1.72-6.17c0.05-0.211-0.06-0.47,0-0.68c0.08-0.32,0.18-0.86,0.34-1.37
	c0.1-0.32,0.23-0.57,0.34-1.03c0.12-0.46,0.82-1.78,1.37-2.4c0.52-0.58,1.15-0.71,1.72-1.369c2.23-0.141,4.34,0.31,6.51,0.689
	c0.85,0.14,1.86,0.55,2.74,0.68c0.56,0.09,1.15-0.069,1.71,0c3.74,0.46,9.56,0.49,13.02-0.68c2.01-0.689,4.4-2.08,5.82-3.77
	c0.24-0.29,1.68-1.44,1.72-2.061c0,0,0.27-0.939,0.34-1.03c0.1-0.14,0.61-0.199,0.68-0.34c0.21-0.37,0.17-0.689,0.35-1.03
	c0.2-0.39,0.43-0.739,0.68-1.37c0.05-0.119-0.09-0.609,0-0.68c0.53-0.439,1-2.189,1.37-3.43c0.65-2.16,1.26-4.65,1.71-7.19
	c-0.15-0.5-0.3,0.03-0.68,0c0.29,0.91-0.65,0.61-0.69,1.37c-0.03,0.58-0.99,0.69-1.02,1.37c-0.04,0.609-3.7,3.979-4.46,4.45
	c-0.22,0.14-0.45,0.19-0.68,0.34c-0.21,0.14-0.5,0.58-0.69,0.689c-0.12,0.07-0.6-0.109-0.68,0c-0.64,0.78-1.94,1-3.43,1.371
	c-1.08,0.27-5.24,0.47-7.19,0c-0.08-0.021-0.04-0.33-0.35-0.341c-0.09-0.01-0.26,0.03-0.34,0c-0.42-0.17-1.67-0.569-2.4-1.03
	c-0.12-0.079-0.31-0.329-0.34-0.339c-0.45-0.221-0.94-0.081-1.37-0.351c-0.13-0.08-0.23-0.63-0.34-0.681
	c-0.16-0.069-0.55,0.111-0.69,0c-0.72-0.579-1.57-1.81-2.4-2.739c-0.25-0.28-0.79-0.399-1.02-0.69c-0.1-0.12,0.11-0.59,0-0.68
	c-0.41-0.33-0.63-0.391-1.03-1.029c-0.25-0.391-0.39-0.711-0.69-1.03c-0.3-0.311-1.34-2.55-1.71-3.42
	c-0.26-0.61-0.41-1.07-0.69-1.721c-0.05-0.12,0.1-0.6,0-0.68c-0.04-0.03-0.32,0.04-0.34,0c-0.06-0.13,0.1-0.61,0-0.69
	c-0.41-0.34-0.64-1.779-1.03-2.739c-0.04-0.12,0.1-0.61,0-0.681c-0.02-0.03-0.33,0.021-0.34,0c-0.12-0.46-0.24-1.25-0.34-1.72
	c-0.32-1.569-0.7-3.439-1.03-5.48c-0.31-1.89-0.44-3.729-0.68-5.819c-0.04-0.33,0.07-0.71,0-1.03c-0.1-0.46-0.3-1.46-0.35-2.74
	c-0.01-0.24,0.17-1.58,0-1.71c-0.02-0.02-0.34,0.01-0.34,0c-0.45-7-0.34-16.74-0.34-25.36c0-1.63-0.11-3.21,0-4.45
	c0.22-2.6,0.45-3.27,2.05-4.45c0.2-0.15,0.5-0.59,0.69-0.69c0.12-0.07,0.6,0.11,0.68,0c0.68-0.82,5.08-0.94,6.86-1.03
	c2.11-0.1,4.96-0.09,7.53,0c1.49,0.05,3.31,0.06,4.8,0.35c2.53,0.48,3.43,0.79,4.45,2.74c0.12,0.22,0.2,0.45,0.35,0.68
	c0.2,0.32,0.57,2.18,0.68,3.43c0.21,2.21,0,4.87,0,7.19c0,5.22,0.08,9.72,0.34,14.05c0.04,0.64-0.09,1.35,0,2.05
	c0.11,0.83,0.28,1.62,0.35,3.09c0.01,0.3-0.09,0.74,0,1.03c0.15,0.5,0.5,2.45,0.68,3.76c0.16,1.09,0.12,2.08,0.34,3.09
	c0.02,0.06,0.33,0.05,0.35,0.34c0.02,0.42-0.11,0.97,0,1.37c0.02,0.09,0.32,0.029,0.34,0.34c0,0.09-0.03,0.26,0,0.351
	c0.19,0.479,0.61,2.21,1.03,3.08c0.08,0.17,0.32-0.03,0.34,0.339c0,0.05,0.25,0.87,0.34,1.03c0.08,0.14,0.63,0.22,0.69,0.34
	c0.06,0.15-0.11,0.58,0,0.69c0.71,0.73,1.56,0.98,2.4,1.021c2.02,0.109,2-0.631,3.08-1.711c0.12-0.109,0.61-0.22,0.69-0.34
	c0.27-0.43,0.09-0.91,0.34-1.369c0.09-0.181,0.32,0.039,0.34-0.341c0.01-0.159,0.24-0.729,0.34-1.029
	c0.39-1.16,0.98-2.561,1.37-4.11c1.16-4.54,1.36-8.36,1.72-13.02c0.08-1.08,0.3-2.14,0.34-3.43c0.1-3.41,0.34-7.23,0.34-10.96
	c0-4.44-0.53-10.71,2.06-12.68c0.22-0.16,0.43-0.18,0.68-0.34c0.43-0.27,0.75-0.15,1.37-0.34c0.31-0.1,0.97-0.29,2.06-0.34
	c0.3-0.02,0.74,0.08,1.03,0c1.28-0.39,5.24-0.37,7.19-0.35C297.709,30.094,302.039,30.054,305.299,31.764z"/>
<path fill-rule="evenodd" clip-rule="evenodd" fill="#44233D" d="M483.799,91.714c0.4,1.95,0.561,4.47,0.34,6.51
	c-0.06,0.55,0.121,1.181,0,1.71c-0.01,0.07-0.329,0.051-0.34,0.351c-0.01,0.089,0.03,0.25,0,0.339c-0.1,0.241-0.789,1.991-1.369,2.4
	c-0.4,0.271-0.891,0.181-1.37,0.341c-1.971,0.67-7.021,0.64-9.25-0.341c-0.971-1.56-0.82-4.21-0.69-6.17
	c0.08-1.17,0.02-2.08,0.35-3.08c0.19-0.609,0.641-1.72,1.021-2.06c0.12-0.1,0.59,0.12,0.69,0c0.049-0.06,0.289-0.66,0.339-0.68
	c0.541-0.221,1.771-0.291,2.741-0.351C478.719,90.534,482.1,90.484,483.799,91.714z"/>
</svg>
